<svg width="256" height="256" viewBox="0 0 256 256" fill="none" xmlns="http://www.w3.org/2000/svg">
<path d="M160.166 46.0152C143.225 40.3368 126.018 39.3759 108.485 42.7246C105.938 43.2197 104.931 44.2971 105.02 46.8596C105.02 50.849 105.079 54.9258 105.079 58.9734C105.079 74.0865 111.624 85.4431 125.011 93.0142C140.678 101.867 156.316 110.777 171.953 119.659C188.835 129.239 205.716 138.849 222.627 148.429C225.678 150.176 226.862 149.506 227.218 146.012C227.277 145.371 227.307 144.702 227.336 144.032C229.883 100.119 202.518 60.2255 160.136 46.0152H160.166ZM90.0338 165.144C90.2412 126.735 90.1227 88.3551 90.1819 49.9463C90.1819 48.0244 89.5304 46.8596 87.8126 45.8987C80.1419 41.6472 72.5601 37.2793 64.9486 32.9696C57.5741 28.7763 50.0515 24.8452 42.8843 20.3316C37.2275 16.7499 29.0237 20.1569 29.0237 28.0775C29.1422 65.5253 28.8164 103.002 29.1718 140.45C29.4088 164.27 38.0864 185.178 54.0201 203.145C55.649 204.979 57.0706 205.27 59.1734 203.989C63.1716 201.572 67.3179 199.446 71.2866 197.03C83.3405 189.72 89.8858 179.034 89.9746 165.114L90.0338 165.144ZM220.909 164.59C218.451 163.309 216.111 161.882 213.713 160.514C212.646 159.902 211.551 159.32 210.484 158.679C196.683 150.525 182.941 150.642 169.051 158.621C151.429 168.754 133.689 178.713 115.978 188.73C101.525 196.942 87.0426 205.154 72.5897 213.366C69.3023 215.229 68.9556 217.093 72.0654 218.957C77.5148 222.218 82.7726 225.77 88.607 228.216C112.419 238.233 137.529 239.167 161.904 230.46C192.083 219.686 211.936 198.748 222.568 168.9C223.308 166.774 222.894 165.551 220.939 164.561L220.909 164.59Z" fill="url(#paint0_linear_2842_5083)"/>
<defs>
<linearGradient id="paint0_linear_2842_5083" x1="36.4575" y1="191.817" x2="183.985" y2="41.7424" gradientUnits="userSpaceOnUse">
<stop stop-color="#F7BA1E"/>
<stop offset="1" stop-color="#F7791E"/>
</linearGradient>
</defs>
</svg>
